<svg version="1.2" xmlns="http://www.w3.org/2000/svg" viewBox="0 0 1000 1000" width="1000" height="1000">
	<title>keito_logo_1-ai</title>
	<style>
		.s0 { fill: #ffffff } 
		.s1 { fill: #000000 } 
	</style>
	<g id="レイヤー 1">
		<path id="シェイプ 1" class="s0" d="m500 1000c-276.5 0-500-223.5-500-500 0-276.5 223.5-500 500-500 276.5 0 500 223.5 500 500 0 276.5-223.5 500-500 500z"/>
		<path id="&lt;Compound Path&gt;" fill-rule="evenodd" class="s1" d="m810.5 241.1l-258.1 258.1 258.4 258.4c9 9 13.4 26.4 8.7 38.2-6.5 16.7-21 25-35.4 25-9.5 0-19-3.7-26.3-10.9l-310.7-310.7 247.1-247.2h-179l-247.2 247.2 258.1 258q0 0.1 0.1 0.1 0.6 0.6 1.1 1.3 0.3 0.3 0.6 0.6 0.3 0.4 0.6 0.7 0.4 0.5 0.7 0.9 0.2 0.3 0.4 0.6 0.4 0.4 0.7 0.9 0.2 0.3 0.4 0.5 0.3 0.5 0.6 1.1 0.2 0.2 0.4 0.5 0.3 0.5 0.6 1 0.1 0.3 0.3 0.6 0.2 0.4 0.5 0.9 0.1 0.4 0.3 0.7 0.2 0.5 0.4 0.9 0.2 0.4 0.4 0.8 0.1 0.4 0.3 0.8 0.2 0.5 0.3 0.9 0.1 0.4 0.3 0.7 0.1 0.6 0.3 1.1 0.1 0.3 0.2 0.6 0.1 0.6 0.3 1.1 0.1 0.3 0.1 0.6 0.2 0.6 0.3 1.2 0 0.3 0.1 0.6 0.1 0.6 0.2 1.2 0 0.4 0.1 0.7 0 0.5 0.1 1.1 0 0.5 0.1 0.9 0 0.5 0 0.9 0.1 0.9 0.1 1.8 0 0 0 0 0 1-0.1 1.9 0 0.4 0 0.9-0.1 0.4-0.1 0.9-0.1 0.6-0.1 1.1-0.1 0.3-0.1 0.7-0.1 0.6-0.2 1.2-0.1 0.3-0.1 0.6-0.1 0.6-0.3 1.2 0 0.3-0.1 0.6-0.2 0.5-0.3 1.1-0.1 0.3-0.2 0.6-0.2 0.5-0.3 1.1-0.2 0.3-0.3 0.7-0.1 0.4-0.3 0.9-0.2 0.4-0.3 0.8-0.2 0.4-0.4 0.8-0.2 0.4-0.4 0.9-0.2 0.3-0.3 0.7-0.3 0.5-0.5 0.9-0.2 0.3-0.3 0.6-0.3 0.5-0.6 1-0.2 0.3-0.4 0.5-0.3 0.6-0.6 1.1-0.2 0.2-0.4 0.5-0.3 0.5-0.7 0.9-0.2 0.3-0.4 0.6-0.3 0.4-0.7 0.9-0.3 0.3-0.6 0.7-0.2 0.3-0.6 0.6-0.5 0.7-1.1 1.3-0.1 0-0.1 0.1-0.1 0-0.1 0.1-0.6 0.6-1.3 1.1-0.3 0.3-0.6 0.6-0.4 0.3-0.7 0.6-0.5 0.4-0.9 0.7-0.3 0.2-0.6 0.4-0.4 0.4-0.9 0.7-0.3 0.2-0.5 0.4-0.5 0.3-1 0.6-0.3 0.2-0.6 0.4-0.5 0.3-1 0.5-0.3 0.2-0.6 0.4-0.4 0.2-0.9 0.5-0.4 0.1-0.7 0.3-0.5 0.2-0.9 0.4-0.4 0.2-0.8 0.4-0.4 0.1-0.8 0.3-0.5 0.1-0.9 0.3-0.4 0.1-0.7 0.3-0.6 0.1-1.1 0.3-0.3 0.1-0.6 0.2-0.6 0.1-1.1 0.3-0.3 0.1-0.6 0.1-0.6 0.2-1.2 0.3-0.3 0-0.6 0.1-0.6 0.1-1.2 0.2-0.4 0-0.7 0.1-0.5 0-1.1 0.1-0.5 0-0.9 0.1-0.5 0-0.9 0-0.9 0.1-1.8 0.1h-321.7v-321.6c0-10.3 4.2-19.6 11-26.4l284.3-284.3q0.7-0.7 1.4-1.3 0.3-0.3 0.6-0.5 0.4-0.4 0.7-0.7 0.5-0.3 0.9-0.6 0.3-0.3 0.6-0.5 0.4-0.3 0.9-0.7 0.3-0.2 0.5-0.3 0.5-0.4 1-0.7 0.3-0.2 0.6-0.3 0.5-0.3 1-0.6 0.3-0.2 0.6-0.3 0.4-0.3 0.9-0.5 0.4-0.2 0.7-0.3 0.5-0.3 0.9-0.5 0.4-0.1 0.8-0.3 0.4-0.2 0.8-0.3 0.5-0.2 0.9-0.4 0.4-0.1 0.7-0.2 0.6-0.2 1.1-0.3 0.3-0.1 0.6-0.2 0.6-0.2 1.1-0.3 0.3-0.1 0.6-0.2 0.6-0.1 1.2-0.2 0.3-0.1 0.6-0.1 0.6-0.1 1.2-0.2 0.4-0.1 0.7-0.1 0.5-0.1 1.1-0.1 0.5-0.1 0.9-0.1 0.5-0.1 0.9-0.1 0.9 0 1.8 0 0 0 0.1 0h284.3q0 0 0.1 0 0.9 0 1.8 0 0.4 0 0.8 0.1 0.5 0 1 0.1 0.5 0 1.1 0.1 0.3 0 0.7 0.1 0.6 0.1 1.2 0.2 0.3 0 0.6 0.1 0.5 0.1 1.1 0.2 0.3 0.1 0.6 0.2 0.6 0.1 1.2 0.3 0.3 0.1 0.6 0.2 0.5 0.1 1 0.3 0.4 0.1 0.7 0.2 0.5 0.2 1 0.4 0.4 0.1 0.8 0.3 0.4 0.2 0.8 0.3 0.4 0.2 0.9 0.5 0.3 0.1 0.6 0.3 0.5 0.2 1 0.5 0.3 0.1 0.6 0.3 0.5 0.3 1 0.6 0.3 0.1 0.5 0.3 0.5 0.3 1 0.7 0.3 0.1 0.5 0.3 0.5 0.3 1 0.7 0.3 0.2 0.6 0.4 0.4 0.4 0.8 0.7 0.4 0.3 0.7 0.6 0.4 0.3 0.7 0.6 0.6 0.6 1.2 1.2 0.1 0 0.2 0.1 0 0 0.1 0.1 0.6 0.6 1.1 1.2 0.3 0.4 0.6 0.7 0.3 0.3 0.6 0.7 0.4 0.4 0.7 0.9 0.2 0.2 0.4 0.5 0.4 0.5 0.7 1 0.2 0.2 0.4 0.5 0.3 0.5 0.6 1 0.2 0.3 0.3 0.5 0.3 0.5 0.6 1 0.2 0.3 0.3 0.6 0.3 0.5 0.5 1 0.2 0.3 0.4 0.7 0.2 0.4 0.4 0.9 0.2 0.4 0.3 0.8 0.2 0.4 0.3 0.8 0.2 0.4 0.4 0.9 0.1 0.3 0.2 0.7 0.2 0.5 0.4 1 0.1 0.4 0.2 0.7 0.1 0.5 0.3 1.1 0 0.3 0.1 0.6 0.1 0.6 0.3 1.2 0 0.3 0.1 0.6 0.1 0.6 0.2 1.2 0 0.3 0 0.7 0.1 0.5 0.2 1 0 0.5 0 1 0.1 0.4 0.1 0.9 0.1 0.9 0.1 1.8 0 0 0 0 0 0.9-0.1 1.8 0 0.5-0.1 0.9 0 0.5 0 1-0.1 0.5-0.2 1 0 0.4 0 0.8-0.1 0.5-0.2 1.1-0.1 0.3-0.1 0.6-0.2 0.6-0.3 1.2-0.1 0.3-0.1 0.6-0.2 0.6-0.4 1.1 0 0.4-0.1 0.7-0.2 0.5-0.4 1-0.1 0.4-0.2 0.7-0.2 0.5-0.4 0.9-0.1 0.5-0.3 0.9-0.1 0.4-0.3 0.7-0.2 0.5-0.4 0.9-0.2 0.4-0.4 0.7-0.2 0.5-0.5 1-0.1 0.3-0.3 0.6-0.3 0.5-0.6 1-0.1 0.2-0.3 0.5-0.3 0.5-0.6 1-0.2 0.3-0.4 0.5-0.3 0.5-0.7 1-0.2 0.3-0.4 0.5-0.3 0.5-0.7 0.9-0.3 0.4-0.6 0.7-0.3 0.4-0.6 0.7-0.6 0.6-1.2 1.3 0 0 0 0zm-557.9 348v157.2h157.3z"/>
	</g>
</svg>